<svg xmlns="http://www.w3.org/2000/svg" xmlns:xlink="http://www.w3.org/1999/xlink" version="1.1" id="Layer_1" x="0px" y="0px" width="100px" height="100px" viewBox="0 0 100 100" enable-background="new 0 0 100 100" xml:space="preserve">
<path fill="#000000" d="M50.033,6.578V3.36c0.756-0.173,1.322-0.847,1.322-1.657c0-0.94-0.76-1.703-1.704-1.703  c-0.938,0-1.701,0.762-1.701,1.703c0,0.741,0.475,1.364,1.136,1.598v3.275h-9.026v13.193h19.151V6.578H50.033z"/>
<path d="M24.363,23.131l0.052,38.618h9.479V36.568h2.266v63.624H48.8V64.203h2.187v35.988h12.715V36.568h2.191v25.181h9.396V23.131  H24.363z M61.49,34.92c-0.369,0.37-0.86,0.573-1.383,0.573c-0.772,0-1.467-0.464-1.779-1.147H56.37l-2.849,6.265l-2.08-8.136  L48.9,40.379l-3.295-8.341l-0.895,2.41h-3.288c-0.333,0.63-0.996,1.045-1.724,1.045c-1.079,0-1.956-0.877-1.956-1.956  c0-1.077,0.877-1.953,1.956-1.953c0.729,0,1.392,0.415,1.724,1.045h2.022l2.107-5.672l3.172,8.028l2.773-8.63l2.484,8.85  l1.217-2.676h3.24c0.348-0.577,0.98-0.944,1.666-0.944c1.079,0,1.957,0.876,1.957,1.953C62.062,34.059,61.859,34.55,61.49,34.92z"/>
</svg>